<svg viewBox="0 0 329.9999694824219 199.99998474121094" xmlns="http://www.w3.org/2000/svg"><g><g><g><g><g><line x1="41.171875" y1="176.921875" x2="36.171875" y2="176.921875" style="visibility: inherit;" fill="rgb(0, 0, 0)" stroke="rgb(204, 204, 204)" stroke-width="1.1764705181121826px"></line><line x1="41.171875" y1="159.2296875" x2="36.171875" y2="159.2296875" style="visibility: inherit;" fill="rgb(0, 0, 0)" stroke="rgb(204, 204, 204)" stroke-width="1.1764705181121826px"></line><line x1="41.171875" y1="141.5375" x2="36.171875" y2="141.5375" style="visibility: inherit;" fill="rgb(0, 0, 0)" stroke="rgb(204, 204, 204)" stroke-width="1.1764705181121826px"></line><line x1="41.171875" y1="123.84531249999999" x2="36.171875" y2="123.84531249999999" style="visibility: inherit;" fill="rgb(0, 0, 0)" stroke="rgb(204, 204, 204)" stroke-width="1.1764705181121826px"></line><line x1="41.171875" y1="106.153125" x2="36.171875" y2="106.153125" style="visibility: inherit;" fill="rgb(0, 0, 0)" stroke="rgb(204, 204, 204)" stroke-width="1.1764705181121826px"></line><line x1="41.171875" y1="88.4609375" x2="36.171875" y2="88.4609375" style="visibility: inherit;" fill="rgb(0, 0, 0)" stroke="rgb(204, 204, 204)" stroke-width="1.1764705181121826px"></line><line x1="41.171875" y1="70.76875" x2="36.171875" y2="70.76875" style="visibility: inherit;" fill="rgb(0, 0, 0)" stroke="rgb(204, 204, 204)" stroke-width="1.1764705181121826px"></line><line x1="41.171875" y1="53.07656250000001" x2="36.171875" y2="53.07656250000001" style="visibility: inherit;" fill="rgb(0, 0, 0)" stroke="rgb(204, 204, 204)" stroke-width="1.1764705181121826px"></line><line x1="41.171875" y1="35.38437499999999" x2="36.171875" y2="35.38437499999999" style="visibility: inherit;" fill="rgb(0, 0, 0)" stroke="rgb(204, 204, 204)" stroke-width="1.1764705181121826px"></line><line x1="41.171875" y1="17.692187499999996" x2="36.171875" y2="17.692187499999996" style="visibility: inherit;" fill="rgb(0, 0, 0)" stroke="rgb(204, 204, 204)" stroke-width="1.1764705181121826px"></line><line x1="41.171875" y1="0" x2="36.171875" y2="0" style="visibility: inherit;" fill="rgb(0, 0, 0)" stroke="rgb(204, 204, 204)" stroke-width="1.1764705181121826px"></line></g><g transform="translate(31.171875, 0)"><text x="0" y="176.921875" dx="0em" dy="0.3em" style="text-anchor: end; visibility: hidden; font-family: Roboto, sans-serif; font-size: 14.117646217346191px; font-weight: 200;" fill="rgb(255, 255, 255)" stroke="none" stroke-width="1.1764705181121826px">2</text><text x="0" y="159.2296875" dx="0em" dy="0.3em" style="text-anchor: end; visibility: inherit; font-family: Roboto, sans-serif; font-size: 14.117646217346191px; font-weight: 200;" fill="rgb(255, 255, 255)" stroke="none" stroke-width="1.1764705181121826px">2.5</text><text x="0" y="141.5375" dx="0em" dy="0.3em" style="text-anchor: end; visibility: hidden; font-family: Roboto, sans-serif; font-size: 14.117646217346191px; font-weight: 200;" fill="rgb(255, 255, 255)" stroke="none" stroke-width="1.1764705181121826px">3</text><text x="0" y="123.84531249999999" dx="0em" dy="0.3em" style="text-anchor: end; visibility: inherit; font-family: Roboto, sans-serif; font-size: 14.117646217346191px; font-weight: 200;" fill="rgb(255, 255, 255)" stroke="none" stroke-width="1.1764705181121826px">3.5</text><text x="0" y="106.153125" dx="0em" dy="0.3em" style="text-anchor: end; visibility: hidden; font-family: Roboto, sans-serif; font-size: 14.117646217346191px; font-weight: 200;" fill="rgb(255, 255, 255)" stroke="none" stroke-width="1.1764705181121826px">4</text><text x="0" y="88.4609375" dx="0em" dy="0.3em" style="text-anchor: end; visibility: inherit; font-family: Roboto, sans-serif; font-size: 14.117646217346191px; font-weight: 200;" fill="rgb(255, 255, 255)" stroke="none" stroke-width="1.1764705181121826px">4.5</text><text x="0" y="70.76875" dx="0em" dy="0.3em" style="text-anchor: end; visibility: hidden; font-family: Roboto, sans-serif; font-size: 14.117646217346191px; font-weight: 200;" fill="rgb(255, 255, 255)" stroke="none" stroke-width="1.1764705181121826px">5</text><text x="0" y="53.07656250000001" dx="0em" dy="0.3em" style="text-anchor: end; visibility: inherit; font-family: Roboto, sans-serif; font-size: 14.117646217346191px; font-weight: 200;" fill="rgb(255, 255, 255)" stroke="none" stroke-width="1.1764705181121826px">5.5</text><text x="0" y="35.38437499999999" dx="0em" dy="0.3em" style="text-anchor: end; visibility: hidden; font-family: Roboto, sans-serif; font-size: 14.117646217346191px; font-weight: 200;" fill="rgb(255, 255, 255)" stroke="none" stroke-width="1.1764705181121826px">6</text><text x="0" y="17.692187499999996" dx="0em" dy="0.3em" style="text-anchor: end; visibility: inherit; font-family: Roboto, sans-serif; font-size: 14.117646217346191px; font-weight: 200;" fill="rgb(255, 255, 255)" stroke="none" stroke-width="1.1764705181121826px">6.5</text><text x="0" y="0" dx="0em" dy="0.3em" style="text-anchor: end; visibility: hidden; font-family: Roboto, sans-serif; font-size: 14.117646217346191px; font-weight: 200;" fill="rgb(255, 255, 255)" stroke="none" stroke-width="1.1764705181121826px">7</text></g><line x1="41.171875" y1="0" x2="41.171875" y2="176.921875" fill="rgb(0, 0, 0)" stroke="rgb(204, 204, 204)" stroke-width="1.1764705181121826px"></line></g></g><g transform="translate(41, 0)" clip-path="url(#clip_0)"><clipPath id="clip_0"><rect width="288" height="176"></rect></clipPath><g><g><g><line x1="0" y1="0" x2="0" y2="176.921875" fill="rgb(0, 0, 0)" stroke="rgb(189, 189, 189)" stroke-width="1.1764705181121826px" opacity="0.25"></line><line x1="20.630580357142858" y1="0" x2="20.630580357142858" y2="176.921875" fill="rgb(0, 0, 0)" stroke="rgb(189, 189, 189)" stroke-width="1.1764705181121826px" opacity="0.25"></line><line x1="41.261160714285715" y1="0" x2="41.261160714285715" y2="176.921875" fill="rgb(0, 0, 0)" stroke="rgb(189, 189, 189)" stroke-width="1.1764705181121826px" opacity="0.25"></line><line x1="61.89174107142857" y1="0" x2="61.89174107142857" y2="176.921875" fill="rgb(0, 0, 0)" stroke="rgb(189, 189, 189)" stroke-width="1.1764705181121826px" opacity="0.25"></line><line x1="82.52232142857143" y1="0" x2="82.52232142857143" y2="176.921875" fill="rgb(0, 0, 0)" stroke="rgb(189, 189, 189)" stroke-width="1.1764705181121826px" opacity="0.25"></line><line x1="103.15290178571429" y1="0" x2="103.15290178571429" y2="176.921875" fill="rgb(0, 0, 0)" stroke="rgb(189, 189, 189)" stroke-width="1.1764705181121826px" opacity="0.25"></line><line x1="123.78348214285714" y1="0" x2="123.78348214285714" y2="176.921875" fill="rgb(0, 0, 0)" stroke="rgb(189, 189, 189)" stroke-width="1.1764705181121826px" opacity="0.25"></line><line x1="144.4140625" y1="0" x2="144.4140625" y2="176.921875" fill="rgb(0, 0, 0)" stroke="rgb(189, 189, 189)" stroke-width="1.1764705181121826px" opacity="0.25"></line><line x1="165.04464285714286" y1="0" x2="165.04464285714286" y2="176.921875" fill="rgb(0, 0, 0)" stroke="rgb(189, 189, 189)" stroke-width="1.1764705181121826px" opacity="0.25"></line><line x1="185.67522321428572" y1="0" x2="185.67522321428572" y2="176.921875" fill="rgb(0, 0, 0)" stroke="rgb(189, 189, 189)" stroke-width="1.1764705181121826px" opacity="0.25"></line><line x1="206.30580357142858" y1="0" x2="206.30580357142858" y2="176.921875" fill="rgb(0, 0, 0)" stroke="rgb(189, 189, 189)" stroke-width="1.1764705181121826px" opacity="0.25"></line><line x1="226.93638392857142" y1="0" x2="226.93638392857142" y2="176.921875" fill="rgb(0, 0, 0)" stroke="rgb(189, 189, 189)" stroke-width="1.1764705181121826px" opacity="0.25"></line><line x1="247.56696428571428" y1="0" x2="247.56696428571428" y2="176.921875" fill="rgb(0, 0, 0)" stroke="rgb(189, 189, 189)" stroke-width="1.1764705181121826px" opacity="0.25"></line><line x1="268.19754464285717" y1="0" x2="268.19754464285717" y2="176.921875" fill="rgb(0, 0, 0)" stroke="rgb(189, 189, 189)" stroke-width="1.1764705181121826px" opacity="0.25"></line><line x1="288.828125" y1="0" x2="288.828125" y2="176.921875" fill="rgb(0, 0, 0)" stroke="rgb(189, 189, 189)" stroke-width="1.1764705181121826px" opacity="0.25"></line></g><g><line x1="0" y1="176.921875" x2="288.828125" y2="176.921875" fill="rgb(0, 0, 0)" stroke="rgb(189, 189, 189)" stroke-width="1.1764705181121826px" opacity="0.25"></line><line x1="0" y1="159.2296875" x2="288.828125" y2="159.2296875" fill="rgb(0, 0, 0)" stroke="rgb(189, 189, 189)" stroke-width="1.1764705181121826px" opacity="0.25"></line><line x1="0" y1="141.5375" x2="288.828125" y2="141.5375" fill="rgb(0, 0, 0)" stroke="rgb(189, 189, 189)" stroke-width="1.1764705181121826px" opacity="0.25"></line><line x1="0" y1="123.84531249999999" x2="288.828125" y2="123.84531249999999" fill="rgb(0, 0, 0)" stroke="rgb(189, 189, 189)" stroke-width="1.1764705181121826px" opacity="0.25"></line><line x1="0" y1="106.153125" x2="288.828125" y2="106.153125" fill="rgb(0, 0, 0)" stroke="rgb(189, 189, 189)" stroke-width="1.1764705181121826px" opacity="0.25"></line><line x1="0" y1="88.4609375" x2="288.828125" y2="88.4609375" fill="rgb(0, 0, 0)" stroke="rgb(189, 189, 189)" stroke-width="1.1764705181121826px" opacity="0.25"></line><line x1="0" y1="70.76875" x2="288.828125" y2="70.76875" fill="rgb(0, 0, 0)" stroke="rgb(189, 189, 189)" stroke-width="1.1764705181121826px" opacity="0.25"></line><line x1="0" y1="53.07656250000001" x2="288.828125" y2="53.07656250000001" fill="rgb(0, 0, 0)" stroke="rgb(189, 189, 189)" stroke-width="1.1764705181121826px" opacity="0.25"></line><line x1="0" y1="35.38437499999999" x2="288.828125" y2="35.38437499999999" fill="rgb(0, 0, 0)" stroke="rgb(189, 189, 189)" stroke-width="1.1764705181121826px" opacity="0.25"></line><line x1="0" y1="17.692187499999996" x2="288.828125" y2="17.692187499999996" fill="rgb(0, 0, 0)" stroke="rgb(189, 189, 189)" stroke-width="1.1764705181121826px" opacity="0.25"></line><line x1="0" y1="0" x2="288.828125" y2="0" fill="rgb(0, 0, 0)" stroke="rgb(189, 189, 189)" stroke-width="1.1764705181121826px" opacity="0.25"></line></g></g></g><g><g><line x1="0" y1="247.69062499999998" x2="288.828125" y2="247.69062499999998" fill="rgb(0, 0, 0)" stroke="rgb(153, 153, 153)" stroke-width="1.764705777168274px"></line></g></g><g><g><line x1="20.630580357142858" y1="0" x2="20.630580357142858" y2="176.921875" fill="rgb(0, 0, 0)" stroke="rgb(153, 153, 153)" stroke-width="1.764705777168274px"></line></g></g><g><g><g><g><g><path stroke="rgb(255, 112, 67)" stroke-width="2.3529410362243652px" d="M20.832760044642857,9.624527323246006L21.245371651785717,13.982789799757306L21.451677455357142,19.167198162084965L21.65798325892857,26.64641683969981L22.27690066964286,34.5394952089225L22.689512276785713,34.40081202308041L22.895818080357145,32.189528922354L23.10212388392857,34.37881933607076L23.721041294642855,35.758491595069195L23.927347098214288,41.96803630476933L24.133652901785716,44.26594408010204L24.33995870535714,43.187215835762196L24.546264508928573,44.608077859519796L24.752570312499998,42.42087794948598L24.958876116071426,37.88195115287546L25.371487723214283,40.76263938009675L25.577793526785715,42.23231086502837L25.99040513392857,49.29113575766616L26.1967109375,50.46576664462405L26.40301674107143,45.45874509849847L26.609322544642858,43.44404566776509L26.815628348214286,41.156272039564534L27.021934151785715,52.10690023769233L27.228239955357143,47.8539742811158L27.43454575892857,46.16404519302929L27.640851562499996,52.32170748875347L27.84715736607143,56.37102098099201L28.25976897321429,54.7316181190464L28.466074776785714,61.74924992432423L28.672380580357142,51.850320899835026L28.87868638392857,54.6449650897215L29.0849921875,50.425443907949315L29.497603794642856,47.92389959690748L29.703909598214285,47.47633533624646L30.32282700892857,48.70361894838497L30.529132812500002,58.63148500533342L30.735438616071427,54.58002160611668L30.94174441964286,56.31434363188355L31.148050223214288,56.07434139771643L31.354356026785712,48.624780782179045L31.560661830357144,56.016910244264L31.76696763392857,58.31072620039567L31.9732734375,54.95068549110061L32.17957924107143,62.843781653779644L32.59219084821429,61.72462295028135L32.79849665178571,66.31756991434469L33.21110825892857,73.20243754405736L33.4174140625,72.40233170995677L33.62371986607143,59.096768580552904L33.83002566964286,62.95139818950249L34.242637276785715,60.907674554360455L34.44894308035714,65.97723617875417L34.65524888392857,65.14820647372957L34.8615546875,61.88199748178472L35.27416629464286,59.55627872574274L35.480472098214285,55.753669541047216L35.68677790178571,61.60232100246453L35.89308370535714,64.71049778138503L36.3056953125,67.05147395297847L36.718306919642856,67.00157535412886L36.92461272321429,59.98329502188528L37.13091852678572,52.03347676004972L37.33722433035714,53.08264334980256L37.54353013392857,51.26371527721642L37.7498359375,55.93437989479403L37.95614174107143,54.22425309852422L38.16244754464286,52.9385214384536L38.36875334821429,57.47417852259515L38.57505915178571,53.95615839705969L38.78136495535714,51.76254917351067L38.98767075892857,64.74309167604245L39.1939765625,66.96238434160111L39.40028236607143,60.97071820643158L39.81289397321429,60.89425987331042L40.225505580357144,63.599277604389016L40.431811383928576,70.11644468234053L40.6381171875,63.22354607359213L41.25703459821428,63.01271433815742L41.463340401785715,59.86280332496993L41.66964620535715,68.6335699682905L42.082257812499996,75.26521996530737L42.28856361607143,70.88812307281997L42.701175223214285,68.32365909197154L42.90748102678572,66.86490951227083L43.11378683035715,66.70355907527764L43.32009263392857,68.81985152452087L43.5263984375,73.4712371926838L43.73270424107143,69.38090207942331L43.939010044642856,67.00228344242575L44.35162165178571,69.63917127156736L44.55792745535714,62.876042528775216L44.76423325892857,63.54849567283804L44.9705390625,62.157352194604975L45.176844866071434,61.636219474922214L45.38315066964286,65.85605604842341L45.589456473214284,62.516649425000196L45.795762276785716,66.78916831670416L46.00206808035714,65.54376111899742L46.20837388392857,69.16131951257543L46.62098549107142,73.79475250390146L46.827291294642855,70.30893496064529L47.03359709821429,71.74807330243696L47.23990290178571,73.73447407050676L47.446208705357144,75.62376644649356L47.652514508928576,79.66222731017024L47.858820312499994,74.4803439196524L48.065126116071426,73.57105474511249L48.47773772321429,71.94344912492907L48.89034933035715,65.88640873386666L49.09665513392857,64.99047678383711L49.302960937499996,73.0696724419148L49.50926674107143,80.19100685741613L49.71557254464286,77.65198056713406L49.921878348214285,80.23502798447407L50.33448995535714,74.84072143417238L50.54079575892857,70.38854200709847L50.7471015625,75.43318887155642L50.95340736607143,71.16830723644132L51.15971316964286,71.91340155995391L51.36601897321428,75.24630456743539L51.778630580357145,74.21283480273426L52.1912421875,78.65454863695348L52.397547991071434,75.10051089875724L52.60385379464285,76.34676262469782L53.016465401785716,77.82507633585746L53.22277120535714,75.37376966368565L53.42907700892857,77.35195796663409L53.6353828125,78.96042910560875L53.84168861607143,76.82846785691326L54.047994419642855,80.91258639339772L54.25430022321429,81.14819330599407L54.46060602678572,70.57045830980836L54.666911830357144,70.98066662130297L54.87321763392857,70.46600000964126L55.0795234375,68.19977773253036L55.49213504464286,74.4651298941607L55.69844084821429,72.23757015117613L55.90474665178571,71.71969886987571L56.11105245535714,69.74664180141187L56.31735825892857,64.92310755527912L56.72996986607143,76.00478523002207L56.93627566964286,72.81788476899946L57.142581473214285,76.44310411212255L57.34888727678571,77.72487959502584L57.55519308035714,81.98881062172917L57.9678046875,80.7048159909431L58.17411049107143,75.42720513535643L58.380416294642856,70.97888909455006L58.58672209821428,73.52180042669693L58.79302790178571,84.62440612259817L58.999333705357145,77.11166198279446L59.20563950892858,77.2392115064024L59.82455691964286,76.98134683654065L60.030862723214284,77.21224083712907L60.237168526785716,71.27396733588702L60.44347433035715,70.24322051779467L60.649780133928566,77.44000523672126L61.06239174107143,82.28905631235612L61.47500334821429,81.6066376032315L61.68130915178572,80.03819502841725L61.887614955357144,79.30155772120531L62.09392075892857,74.44495125622021L62.50653236607143,72.81069869643727L62.71283816964286,74.90532422272133L62.91914397321428,69.21637851481299L63.125449776785715,74.39018490245734L63.33175558035714,76.8594926269698L63.53806138392857,77.82612597297715L63.7443671875,77.77872928471018L63.95067299107143,78.4272733669916L64.15697879464285,82.96857421466348L64.36328459821429,92.95431974720142L64.77589620535714,80.70022964949123L64.98220200892857,84.20802403017706L65.1885078125,87.6986755169918L65.39481361607143,90.85946776196302L65.8074252232143,83.14251119747723L66.0137310267857,82.87257087501862L66.22003683035715,86.91636166020025L66.42634263392857,84.00069478895539L66.6326484375,82.5871468415634L66.83895424107143,75.31295916383125L67.04526004464286,71.68152662244235L67.25156584821428,70.80514965728995L67.45787165178571,81.70865045831248L68.0767890625,82.61569905308276L68.28309486607142,82.94794105426902L68.48940066964286,85.46837350926657L68.69570647321429,79.2803767144791L68.90201227678571,83.10587158919047L69.10831808035715,81.11815059495372L69.31462388392856,78.42778588719608L69.5209296875,80.69208838216926L69.72723549107143,84.48757055564202L69.93354129464285,73.77950936236071L70.13984709821429,79.49810815738492L70.55245870535714,75.54132946066171L70.75876450892856,78.05708580215043L71.17137611607143,75.65029118775882L71.37768191964285,82.67349839281772L71.58398772321429,85.51104498369537L71.79029352678572,81.01006342269805L71.99659933035714,76.2578086662163L72.20290513392857,84.5782194106501L72.82182254464286,85.28329053334724L73.02812834821428,81.76993217237194L73.23443415178572,84.7120977614367L73.44073995535715,79.03763330960535L73.8533515625,74.00688289811768L74.05965736607142,75.34161352700326L74.26596316964286,69.56721909812887L74.47226897321428,68.9163424227941L74.88488058035715,71.10719366337703L75.09118638392856,86.12716332713272L75.50379799107142,85.63647835874262L75.91640959821429,85.50483382894815L76.12271540178573,80.74291518660917L76.53532700892856,72.45280518730004L76.7416328125,75.10364924072935L77.15424441964286,86.32011379122564L77.36055022321429,93.81028469157116L77.56685602678573,97.42351682157457L77.77316183035714,91.24572222692454L78.1857734375,91.66153086818868L78.39207924107143,84.09003306625851L78.59838504464287,80.62893703340629L78.80469084821429,80.62747236585103L79.0109966517857,78.7039827722042L79.21730245535714,88.28847262070948L79.42360825892857,90.39886586073862L79.6299140625,99.23628954770462L79.83621986607143,98.58189793635783L80.04252566964286,95.29471705144272L80.2488314732143,90.53654904476178L80.4551372767857,93.21308895773514L80.66144308035715,95.95001601115959L80.86774888392857,90.22705950222073L81.69297209821428,84.22791031051672L81.89927790178571,88.26318443804384L82.10558370535713,88.2148369061315L82.31188950892857,90.61402280970597L82.5181953125,87.62751115288843L82.72450111607144,89.34931994751994L82.93080691964286,94.5753167913908L83.34341852678571,95.84540768066375L83.54972433035714,84.99803051471312L83.75603013392858,88.81772507440807L83.9623359375,90.9196442425952L84.16864174107144,84.28867793921863L84.37494754464285,83.16100482192178L84.58125334821428,83.57695481089675L84.99386495535714,86.01728821341945L85.20017075892858,82.76063350882981L85.4064765625,79.95531754640851L85.61278236607144,76.41970712869234L85.81908816964285,79.81856470065632L86.02539397321428,82.89152078603102L86.43800558035714,81.21201526745791L86.64431138392858,78.71990243807215L86.8506171875,79.16029816517104L87.05692299107142,81.37457446842713L87.26322879464286,86.40945322030379L87.67584040178572,86.68412432678696L87.88214620535715,87.77576507096384L88.29475781250001,83.99876692154939L88.70736941964286,85.7906406501468L88.91367522321428,87.08592512306785L89.11998102678572,88.51172521053086L89.32628683035715,86.21677647255858L89.53259263392857,77.95903890861868L89.7388984375,86.08228287180543L90.15151004464286,82.93259977030921L90.35781584821429,87.14015061931711L90.56412165178571,83.82126631842196L90.97673325892858,88.51814737204397L91.1830390625,91.16591014077473L91.38934486607143,88.8621839666975L91.59565066964285,91.97443366137816L91.80195647321429,92.31930940859122L92.00826227678571,96.59355365164639L92.21456808035715,96.66722749666906L92.42087388392856,93.9005266630443L92.62717968749999,102.83905743710945L92.83348549107143,97.10196218641252L93.03979129464285,94.31930836887152L93.45240290178572,92.93167721778745L93.65870870535713,91.46280635744688L93.86501450892857,92.96275898009749L94.07132031249999,90.86508639329797L94.48393191964286,87.6137765817292L94.6902377232143,91.54409885957524L95.10284933035713,85.08756798597983L95.30915513392857,91.6724316179324L95.5154609375,96.54773797807509L95.72176674107143,93.39445163021931L95.92807254464286,89.24803252822429L96.1343783482143,90.41556582693022L96.34068415178571,84.88791532065727L96.54698995535713,89.0133632465974L96.75329575892857,94.55778892605159L96.9596015625,98.34559907298477L97.78482477678571,98.79668040979617L97.99113058035714,95.14066703324744L98.19743638392858,91.41305083874006L98.61004799107143,87.34559644903622L98.81635379464286,82.09036497620276L99.43527120535714,94.1787381377669L99.64157700892856,97.71410393874953L100.05418861607143,97.42329968190855L100.26049441964287,97.08694154904286L100.46680022321428,96.11961749604943L101.08571763392857,97.49034177667855L101.2920234375,96.59167145792819L101.49832924107143,90.22830945017445L101.70463504464286,90.69296596385541L101.91094084821428,90.85505557738247L102.1172466517857,87.80631467033925L102.32355245535715,84.81107327955665L102.52985825892857,84.17185344706596L102.73616406250001,86.70391770249974L102.94246986607143,81.32828920272812L103.14877566964284,87.58344203822509L103.35508147321428,89.2474377774757L103.56138727678571,96.60520692608131L103.76769308035715,98.03556709493024L103.97399888392857,98.85797282221807L104.18030468750001,94.50778983630475L104.38661049107142,96.5463133787974L104.59291629464285,98.14745439266349L104.79922209821429,93.54756270453444L105.00552790178571,95.30384498003193L105.21183370535715,93.78234497525136L105.41813950892858,94.48590608845855L105.83075111607143,98.26391888863266L106.03705691964285,96.80787846569072L106.24336272321429,95.07539915039453L106.44966852678571,93.78102079686111L107.06858593749999,93.59093207631463L107.27489174107143,94.69718516656133L107.48119754464285,97.07537386231645L107.68750334821429,93.4022648585619L107.89380915178572,97.96759949760326L108.10011495535714,94.37495113633088L108.30642075892858,93.48245731724508L108.51272656249999,92.54494807084328L108.71903236607143,95.64620958304359L108.92533816964286,95.24846302769157L109.33794977678572,97.25977428019985L109.54425558035715,101.77977652049626L109.75056138392857,90.77848331687785L110.36947879464286,93.87784414504729L110.57578459821428,98.56902457544065L110.78209040178572,97.96767556589161L110.98839620535715,96.59536819828338L111.19470200892856,96.0209421412515L111.4010078125,83.71266550698087L111.60731361607142,88.80770935939672L111.81361941964286,98.00332622901753L112.22623102678573,99.57406378076169L112.43253683035714,100.628128583942L112.63884263392856,96.47343045754081L112.8451484375,93.08165376056935L113.67037165178573,93.29851764601294L113.87667745535714,101.20439368761672L114.08298325892856,100.81704050825294L114.2892890625,95.80363996223365L114.49559486607143,91.58431002137515L114.70190066964287,93.2007627954331L114.90820647321429,96.31104332686944L115.32081808035714,96.61950086999825L115.7334296875,91.70679385393197L115.93973549107143,101.53390303986869L116.14604129464286,99.68394461356164L116.3523470982143,96.68235707749461L116.5586529017857,96.59170423966367L116.76495870535715,92.7732143385513L116.97126450892857,104.08402551521678L117.38387611607143,93.67600185757767L117.59018191964286,103.91582788906032L117.79648772321428,88.19914030660114L118.00279352678571,96.50757651018452L118.41540513392857,97.17029031805606L118.6217109375,98.5328684776569L118.82801674107144,102.04702899900343L119.44693415178571,98.58525402812522L119.65323995535714,102.51608456175543L119.85954575892858,104.35377343178403L120.0658515625,112.14337006378538L120.27215736607144,107.7494027678273L120.47846316964285,105.21883374417436L120.68476897321428,106.22059509673483L121.09738058035714,105.10978644859055L121.30368638392858,106.55134175998724L121.5099921875,104.3441416989729L121.71629799107144,100.96930992728264L121.92260379464285,102.0620595969307L122.12890959821428,97.36974116906806L122.74782700892858,100.068601039918L122.9541328125,97.50313123218521L123.36674441964286,92.8528416642684L123.57305022321428,94.39379295642009L123.77935602678572,96.28522358319066L124.19196763392857,98.01215445864736L124.39827343750001,104.32653669696174L124.60457924107142,95.17286088097764L125.22349665178572,100.25759288447303L125.42980245535715,102.05178221629382L125.63610825892857,107.63937708894206L125.8424140625,104.02928641176102L126.04871986607142,102.8025827946417L126.25502566964286,97.99768280280543L126.46133147321429,100.54902443225927L126.66763727678571,95.5709463562712L126.87394308035715,98.93599328614145L127.2865546875,99.20604304681343L127.49286049107143,96.46646074658706L127.69916629464285,108.10000482443617L127.90547209821429,107.25562528874663L128.11177790178573,106.08440669838302L128.31808370535714,100.510600800894L128.7306953125,98.90060301278966L129.34961272321428,99.54991812023485L129.55591852678572,103.97173775203804L129.76222433035713,107.18140548657045L130.1748359375,99.90986228102842L130.38114174107142,93.5293464101219L130.58744754464286,94.50549866598035L130.7937533482143,97.94112482333891L131.00005915178573,91.87271548369357L131.20636495535715,95.10877347563998L131.41267075892856,97.95959087833938L131.6189765625,100.27332347050417L131.82528236607143,97.85916405984824L132.03158816964287,105.67340364944377L132.23789397321428,101.29543357963229L132.4441997767857,97.23168097898282L132.65050558035713,101.82522762098858L132.85681138392857,104.59544083999963L133.0631171875,104.23903395907503L133.47572879464286,102.12000504300843L133.6820345982143,105.07909137943892L133.8883404017857,108.53309540950958L134.30095200892856,104.07985017361464L134.71356361607144,93.70509562946691L134.91986941964285,106.51846447859606L135.1261752232143,105.71931916042804L135.3324810267857,96.71476951637649L135.53878683035714,105.07889798551072L135.9513984375,98.87590820830624L136.15770424107143,103.52679710710979L136.36401004464287,97.27012223437391L136.57031584821428,100.43100874742841L136.77662165178572,102.74167824966298L136.98292745535713,94.4255979113733L137.18923325892857,101.02064282405111L137.60184486607145,100.7965993845924L137.80815066964286,98.23239287522223L138.01445647321427,100.201983060162L138.2207622767857,101.36053399248165L138.42706808035715,102.28075158240343L138.63337388392858,104.93186543310846L138.8396796875,108.15992361381748L139.04598549107143,99.59329101249635L139.45859709821428,113.90160432878172L139.66490290178572,110.16345028116127L139.87120870535713,104.15336184760227L140.49012611607142,109.6621693155783L141.31534933035715,111.88690984288561L141.5216551339286,119.13992464387242L141.7279609375,115.33088606175079L142.14057254464285,107.35024676368413L142.3468783482143,98.97008132067783L142.55318415178573,103.40377329753315L142.75948995535714,106.4213599536805L142.96579575892858,103.17977412187984L143.1721015625,96.19442136731107L143.37840736607143,90.9152856924913L143.58471316964287,96.93020239822755L143.79101897321428,98.49495103331024L143.99732477678572,101.71784539593229L144.20363058035716,95.97028040750605L144.40993638392857,101.15655665733684L144.82254799107142,115.79949568383854L145.02885379464288,118.67953720821716L145.2351595982143,116.46031876524555L145.4414654017857,120.57658088994185L145.64777120535715,113.68146642382241L145.85407700892856,117.79289153596936L146.06038281250002,113.90101605642542L146.26668861607143,114.88396556191864L146.47299441964287,112.74595122643247L146.67930022321428,101.40885706846673L147.09191183035716,109.21015343788122L147.29821763392857,110.8721761210135L147.5045234375,114.50088192810841L147.71082924107142,116.67352619284526L147.91713504464283,111.45635814734779L148.1234408482143,115.46943730037498L148.3297466517857,117.82597188723737L148.53605245535715,109.10499662144574L148.74235825892856,99.5306499515986L148.9486640625,105.88842308729981L149.15496986607144,116.07404001599606L149.36127566964285,111.41748176900184L149.7738872767857,106.89769736282608L149.98019308035714,97.13090632648814L150.18649888392858,108.36983311469287L150.39280468750002,116.43052299645503L150.59911049107143,113.24768419460631L151.21802790178572,114.20041155365811L151.42433370535716,115.95567666678254L151.63063950892857,111.10319483154193L151.83694531249998,111.37207323535189L152.04325111607142,105.38843188240475L152.24955691964286,99.4252327493092L152.6621685267857,106.25127302296525L152.86847433035715,107.25132791899182L153.07478013392858,114.9534772434982L153.2810859375,114.19819957728102L153.48739174107143,126.75516592749902L153.69369754464284,120.66762883120147L153.90000334821428,117.23990339549404L154.10630915178572,115.2055196989299L154.51892075892857,111.71963698439129L154.72522656249998,116.79807852966981L155.13783816964286,111.45184914209483L155.3441439732143,117.64398036592029L155.5504497767857,115.94424934204116L155.75675558035715,112.67204551139888L155.96306138392856,110.91002327346455L156.58197879464285,116.0639458545664L156.7882845982143,115.74772006503458L156.9945904017857,115.52467135984728L157.20089620535714,116.015340369636L157.6135078125,121.63243149858366L158.02611941964284,123.4061819532016L158.43873102678572,103.75497448375818L158.85134263392857,106.28331083912249L159.05764843749998,115.38250132059213L159.26395424107145,108.52751233551L159.47026004464286,109.00504984541591L159.6765658482143,110.94328029712352L160.08917745535712,104.26076695895381L160.29548325892858,113.68356759981027L160.5017890625,110.12411139867135L160.70809486607143,104.83025424755468L160.91440066964284,104.71478882000955L161.1207064732143,108.2817776847846L161.53331808035713,111.0395717238764L161.73962388392857,114.21467051061272L161.94592968749998,105.38222602338958L162.15223549107145,105.65326345641233L162.56484709821427,109.32171545880328L162.7711529017857,113.7387442130285L162.97745870535712,115.26073558738456L163.1837645089286,117.68434395796433L163.59637611607144,119.30487266663538L163.80268191964285,123.05984357645409L164.00898772321426,126.70072445541797L164.21529352678573,115.39937388223517L164.42159933035714,128.9244764037258L164.62790513392858,120.68018000735799L164.8342109375,114.05311634310462L165.04051674107146,110.03500713806378L165.24682254464287,121.46882635534422L165.65943415178572,107.94429531562696L165.86573995535713,109.8265629504226L166.2783515625,106.36347590470923L166.48465736607145,108.48356327464947L166.69096316964286,106.1280167093919L166.89726897321427,106.05760479218043L167.10357477678573,103.75063156989978L167.30988058035715,111.87271838729242L167.51618638392858,115.03181034651197L167.7224921875,119.11016968117237L167.9287979910714,109.43800917342948L168.34140959821428,111.33805344507483L168.54771540178572,108.08012604120606L168.75402120535713,108.25439622016688L168.96032700892857,104.44759283430541L169.1666328125,108.58527057747344L169.37293861607142,114.69490929174603L169.57924441964286,118.51677742796049L169.78555022321427,106.76120377181115L169.9918560267857,92.63350196777665L170.19816183035715,94.47331916689205L170.4044676339286,104.83944529383973L170.6107734375,107.28817587667463L170.8170792410714,110.68404069467638L171.02338504464285,121.30378973051462L171.2296908482143,125.90974430122705L171.43599665178573,123.31233667659005L171.64230245535714,127.5616720129683L171.84860825892858,122.57417484221664L172.0549140625,115.77455999909525L172.26121986607143,111.76835556303672L172.46752566964287,114.72215101406105L172.67383147321428,122.21042133441644L173.08644308035713,124.04941367191718L173.29274888392857,124.57796685864119L173.4990546875,123.38591017436735L173.91166629464286,115.26198153622003L174.11797209821427,127.53799940959844L174.32427790178573,115.33917313168187L174.53058370535715,116.45741497158849L174.73688950892856,112.48676260936169L175.76841852678572,109.79934860365336L175.97472433035713,108.10155191717593L176.18103013392857,107.9287539490941L176.59364174107142,109.25926512502926L176.79994754464286,108.14352218701421L177.00625334821427,109.10961031016097L177.21255915178574,112.92418987927667L177.41886495535715,111.06024692134757L177.8314765625,116.42098746256053L178.0377823660714,118.83912230912458L178.24408816964288,116.7539649986244L178.4503939732143,119.79684221345286L178.6566997767857,122.51578968464196L178.86300558035714,109.61291788160122L179.06931138392855,105.63923443400454L179.27561718750002,117.22628048803563L179.48192299107143,116.18040011284442L179.68822879464287,119.2795061988097L179.89453459821428,108.33618409529099L180.1008404017857,103.24983553346854L180.30714620535716,105.208509184461L180.7197578125,106.72502889337608L180.92606361607142,102.78625589551012L181.13236941964288,109.91389529729773L181.3386752232143,107.6172168500715L181.5449810267857,107.25078873202168L181.75128683035715,114.81602011093474L181.95759263392856,126.31891675513374L182.16389843750002,124.31308066708677L182.37020424107143,133.96628758527538L182.9891216517857,124.62742096702873L183.19542745535716,119.56712151688707L183.40173325892857,113.4368843622349L183.6080390625,110.4053467629756L183.81434486607142,112.63878038992915L184.02065066964283,124.85816852432747L184.4332622767857,125.51655575354253L184.63956808035715,128.53448201906298L184.84587388392856,128.0249570336438L185.0521796875,131.03405030319075L185.25848549107144,127.40786351262918L185.46479129464285,128.97254365503426L185.6710970982143,133.40199258219977L185.8774029017857,136.04991970802416L186.29001450892858,127.2717110594813L186.49632031250002,123.09769067947293L186.70262611607143,129.83879015287295L186.90893191964284,127.77613092744669L187.11523772321428,119.95249063363266L187.32154352678572,126.27362070018407L187.52784933035716,117.43863354286165L187.73415513392857,130.59248645490771L187.94046093749998,127.96742430798035L188.14676674107142,133.69233108920946L188.5593783482143,121.59613507070002L188.7656841517857,115.54226288841876L188.97198995535715,116.33955326406188L189.3846015625,126.89300344513673L189.59090736607143,128.5629657735039L189.79721316964284,129.38072154042774L190.00351897321428,129.74070020566973L190.20982477678572,126.72478090227003L190.41613058035716,123.07711980641099L190.62243638392857,113.4817148762954L190.82874218749998,109.51550354588107L191.03504799107142,111.26654995935007L191.24135379464286,117.42098623667269L191.4476595982143,122.636176064933L191.6539654017857,123.71547337730208L191.86027120535715,120.34383670931743L192.06657700892856,123.53368365732244L192.47918861607144,129.9414158199275L192.68549441964285,133.9257466217306L192.8918002232143,135.45285008045596L193.0981060267857,121.95925993974542L193.30441183035714,121.0561587253543L193.51071763392858,114.925247526129L193.92332924107143,113.25287476328606L194.12963504464284,106.97981553821322L194.54224665178572,118.63243713139627L194.74855245535713,120.68708164548357L195.16116406249998,114.43871272358585L195.57377566964286,126.80470725538308L196.19269308035712,126.48219694728837L196.39899888392858,119.86332700362911L197.01791629464284,118.63293281979028L197.2242220982143,125.5109507264892L197.43052790178572,128.35809402002096L197.63683370535713,129.4263758577895L197.84313950892857,127.89144967305614L198.25575111607145,134.26968213980172L198.46205691964286,121.6257662955807L198.66836272321427,122.4483823605708L199.2872801339286,121.632345834573L199.4935859375,111.92387090158456L199.90619754464285,108.41911730427738L200.11250334821426,115.18236978148934L200.31880915178573,128.10373303887556L200.52511495535714,123.67312070725745L200.73142075892858,113.29932521223058L200.9377265625,118.40047689252513L201.14403236607146,123.39671321733843L201.55664397321428,125.9375724114421L201.76294977678572,131.11633885010735L201.96925558035713,128.06811532321368L202.3818671875,117.53956174041508L202.58817299107145,124.38285677722502L202.79447879464286,133.28342174107675L203.00078459821427,137.28338908323553L203.20709040178573,135.12470077674928L203.41339620535715,129.50876977027264L203.61970200892858,122.21302816915994L203.8260078125,123.54817474513342L204.0323136160714,129.40429922627862L204.23861941964287,123.28429827623042L204.44492522321428,129.787040020421L204.85753683035713,136.9658910852044L205.06384263392857,129.2790042258125L205.47645424107142,126.21377768259177L205.88906584821427,120.659463930672L206.0953716517857,116.91673013868666L206.7142890625,126.47385101439198L206.9205948660714,137.35223045063995L207.3332064732143,133.43821916647545L207.53951227678573,127.84258896093243L207.74581808035714,122.22039027917788L207.95212388392858,125.52747069751267L208.1584296875,128.59158462408212L208.57104129464287,135.09463765575308L208.77734709821428,122.19998676153311L209.18995870535713,120.5291131858366L209.39626450892857,121.59957505848034L209.80887611607142,120.49895803890243L210.01518191964286,132.6440664467908L210.22148772321427,139.33063619778736L210.42779352678573,128.5961143907677L210.63409933035715,124.15480260770148L210.84040513392856,137.69397694093362L211.0467109375,127.18372956855521L211.2530167410714,127.83899704720629L211.45932254464287,127.93154881421358L211.87193415178572,124.66653493478078L212.07823995535713,117.37890785774098L212.28454575892857,121.94713792914453L212.4908515625,118.62597558983745L212.69715736607142,120.00528450959075L212.90346316964286,125.55293834509344L213.10976897321427,130.47328017474348L213.31607477678574,129.0949541546174L213.52238058035715,123.02094236238409L213.72868638392856,123.0266524259663L214.1412979910714,113.63986747529604L214.5539095982143,115.69663340727386L214.7602154017857,120.8886909096235L214.96652120535714,128.8170765706178L215.17282700892855,121.02396554817417L215.37913281250002,120.71390725296531L215.58543861607143,128.8815902556288L215.79174441964287,135.0228040993397L215.99805022321428,140.05083312244324L216.2043560267857,141.5578444033927L216.41066183035716,143.75511545479694L216.61696763392857,135.12705558920143L216.8232734375,131.86367202391764L217.23588504464288,135.5092702686223L217.6484966517857,131.1150658154149L217.85480245535715,130.9493374683654L218.06110825892856,127.45758629370901L218.26741406250002,123.62899223225816L218.68002566964287,131.77217621628944L218.88633147321428,122.56902609690727L219.0926372767857,117.08192729517637L219.29894308035716,124.32168731191648L219.50524888392857,132.88634864627656L219.7115546875,130.9206399019917L219.91786049107142,132.08516426213743L220.3304720982143,132.90727484004594L220.5367779017857,137.8257916213685L221.1556953125,121.75455046782577L221.36200111607144,131.1553725861888L221.9809185267857,125.83550562312489L222.18722433035714,132.6029998320358L222.39353013392858,137.5180387862335L222.59983593750002,139.00965215073884L222.80614174107143,134.48707614902773L223.01244754464284,136.99207592853378L223.21875334821428,122.13257958619876L223.42505915178572,128.8700342779105L223.63136495535716,130.38913104473025L224.25028236607142,127.24446020834725L224.45658816964286,124.57305889077831L224.6628939732143,132.97803655831723L224.8691997767857,132.29832156937545L225.07550558035715,137.37186558479803L225.4881171875,137.39300521126233L225.69442299107143,124.8423927009752L225.90072879464284,112.76681405667367L226.10703459821428,120.64104411938132L226.31334040178572,123.30582087092603L226.72595200892857,130.18075431855323L226.93225781249998,131.1888114227164L227.13856361607142,134.41352954407384L227.34486941964286,136.30638480037362L227.5511752232143,123.43215974360652L227.7574810267857,118.61129532152384L227.96378683035715,125.50615818020087L228.17009263392856,126.51141279379355L228.3763984375,128.77025543773073L228.58270424107144,132.42879708363947L228.9953158482143,132.11881228330338L229.40792745535714,126.91804960395456L229.8205390625,117.43334748879408L230.02684486607143,128.58974479547342L230.23315066964284,120.42271327323436L230.4394564732143,129.79905653027726L230.64576227678572,120.03803024070282L231.26467968749998,124.20134069190514L231.67729129464286,130.97507279763278L231.8835970982143,133.97986896216665L232.29620870535712,132.2988076098549L232.50251450892858,121.239803055989L232.7088203125,126.8246938330336L232.91512611607143,132.9205413861515L233.12143191964284,138.9952839096452L233.53404352678572,132.17223269731193L234.35926674107145,130.8048935686969L234.56557254464286,119.17242975446125L234.77187834821427,127.53906003899898L234.9781841517857,134.78289888124183L235.18448995535712,135.29911868346045L236.00971316964285,126.9299607558388L236.21601897321426,134.26769512107006L236.42232477678573,134.1743149358632L236.62863058035714,129.18151023617995L237.0412421875,136.94396297235258L237.24754799107146,134.13957447170597L237.45385379464287,139.07683590954176L237.86646540178572,130.31194993648307L238.07277120535713,135.1143262791239L238.2790770089286,134.53568099216238L238.69168861607145,128.47599002078542L239.10430022321427,131.96130722794157L239.31060602678573,139.85367690821423L239.51691183035715,143.34929443478546L239.9295234375,145.43763474333264L240.1358292410714,135.2497069845079L240.34213504464287,131.00494793978206L240.54844084821428,128.70081476913018L240.75474665178572,131.47442707923724L240.96105245535713,121.82793574874208L241.16735825892857,129.07928248372437L241.3736640625,126.03181640551544L241.57996986607142,114.62843845633303L241.78627566964286,129.03364268480323L241.99258147321427,124.32354513221132L242.1988872767857,116.98634121127813L242.40519308035715,115.08351682488852L242.8178046875,133.63416351148328L243.0241104910714,127.95418267291095L243.23041629464285,127.13656450326029L243.64302790178573,128.38552672573798L243.84933370535714,138.10946567004245L244.05563950892858,123.30612016526055L244.2619453125,121.73376204256529L244.67455691964287,124.34634565522856L244.88086272321428,122.66366906768434L245.08716852678572,127.20882849339456L245.29347433035713,135.91460647162083L245.91239174107142,139.37110531137162L246.11869754464286,142.3426531237708L246.32500334821427,135.1283501954285L246.53130915178573,128.9502766788845L247.3565323660714,126.63414524917869L247.76914397321428,120.56943758562248L247.97544977678572,129.82721031418467L248.18175558035713,128.3788907492818L248.38806138392857,129.7434040513433L248.5943671875,135.07451611678582L248.80067299107142,138.26172349644173L249.00697879464286,137.65089459414764L249.21328459821427,138.6017445596783L249.41959040178574,129.29820530788476L249.62589620535715,120.88713644848093L249.83220200892856,129.54022412243978L250.0385078125,129.6943885829657L250.2448136160714,133.95781047383602L250.45111941964288,134.91116268390215L250.6574252232143,131.86536112191556L251.07003683035714,125.48821805871891L251.27634263392855,121.59279511724334L251.48264843750002,125.67152395400059L251.68895424107143,127.70866295845897L251.89526004464287,133.3076746162867L252.10156584821428,140.80186374885412L252.3078716517857,139.20036861123188L252.9267890625,128.73031894041029L253.13309486607142,127.17846429987506L253.5457064732143,120.39123839791868L253.7520122767857,128.81849501166496L253.95831808035715,127.30097610404346L254.16462388392856,131.20911975622326L254.37092968750002,131.6183695189366L254.57723549107143,127.04486956132705L254.78354129464287,121.16297498782428L254.98984709821428,128.47466633790702L255.1961529017857,122.03900795503837L255.40245870535716,126.3496671588682L255.8150703125,119.76513455369847L256.02137611607145,124.84351554458604L256.4339877232143,131.81351797071258L256.6402935267857,122.10442157976127L257.05290513392856,127.30158044274029L257.25921093750003,129.54143162802083L257.46551674107144,132.03500989815726L257.67182254464285,135.86692326331814L257.8781283482143,123.61961524525096L258.08443415178573,127.55415737056023L258.29073995535714,134.80356224401763L258.49704575892855,141.79332263066752L258.7033515625,135.7450676917695L259.11596316964284,130.49686626134294L259.3222689732143,125.5902270069002L259.5285747767857,133.401301450746L259.9411863839286,136.96753899467987L260.1474921875,134.78983340539338L260.3537979910714,137.2167688717115L260.5601037946428,134.63695724485325L260.7664095982143,140.2052280207158L260.9727154017857,137.5698973214436L261.1790212053572,139.0998111951833L261.3853270089286,132.93695658168105L261.5916328125,132.78429874134608L261.7979386160714,136.1514759406599L262.62316183035716,127.38900598139482L262.8294676339286,131.11252082050396L263.0357734375,134.1748003027472L263.44838504464286,124.61437924752434L263.6546908482143,135.59003718346236L263.8609966517857,129.82841857463052L264.06730245535715,132.60420723789886L264.27360825892856,136.4401292528746L264.4799140625,136.24846109724268L264.68621986607144,152.21854749784606L265.0988314732143,138.1271345118626L265.30513727678573,132.57823850571776L265.51144308035714,118.20136002218523L265.92405468749996,135.46431111047147L266.13036049107143,123.90889996617722L266.33666629464284,125.25419039594941L266.5429720982143,126.40395573954468L266.9555837053571,127.43491112041883L267.1618895089286,128.74059336959368L267.3681953125,125.55983953344253L267.5745011160714,134.19763686756747L267.7808069196428,134.96201296389376L267.9871127232143,136.25314208024903L268.6060301339286,127.68772351267434L268.8123359375,127.35827938540277L269.4312533482143,128.4716431201905L269.6375591517857,126.89865139433202L269.8438649553571,137.72712874894415L270.2564765625,137.80028219810174L270.46278236607145,136.85018329972652L270.66908816964286,134.24874573680538L271.08169977678574,135.75677016158565L271.28800558035715,139.68458509731093L271.49431138392856,140.03833626382232L271.90692299107144,140.68890634669472L272.11322879464285,139.92046964164737L272.31953459821426,145.35388899413445L272.52584040178573,140.1312047187549L272.73214620535714,137.74541748339306L272.9384520089286,139.46524793251973L273.1447578125,139.054573945073L273.55736941964284,128.80832845262748L274.1762868303571,133.75795015449563L274.3825926339286,137.67399847361588L275.0015100446429,137.93107599766935L275.2078158482143,127.57818015338114L275.4141216517857,127.41084706199845L275.6204274553571,132.01583316750933L275.8267332589286,129.525457809732L276.2393448660714,132.84712386242487L276.4456506696429,137.72851766772234L276.6519564732143,135.14264408902625L276.8582622767857,129.01291277680576L277.06456808035716,136.1473772917615L277.2708738839286,139.18628775026957L277.4771796875,141.17815740255452L277.6834854910714,142.64922694413625L277.88979129464286,135.4954025271461L278.0960970982143,137.70687516289507L278.30240290178574,135.10982317541573L278.50870870535715,137.43243834474404" style="fill: none;" fill="none"></path></g></g></g></g><g opacity="0.20000000298023224"><g><g><g><path stroke="rgb(255, 112, 67)" stroke-width="2.3529410362243652px" d="M20.832760044642857,9.624527323246006L21.245371651785717,16.597747285664077L21.451677455357142,24.144230189919476L21.65798325892857,35.44197800457477L22.27690066964286,44.844698327779774L22.689512276785713,34.2089632511139L22.895818080357145,29.027358707785602L23.10212388392857,37.570825776457795L23.721041294642855,37.79324018955231L23.927347098214288,51.18848651349544L24.133652901785716,47.69196388870478L24.33995870535714,41.574993860721584L24.546264508928573,46.73473153412341L24.752570312499998,39.144363036751756L24.958876116071426,31.07889629602432L25.371487723214283,45.081640036404124L25.577793526785715,44.43619617670775L25.99040513392857,59.87758086174727L26.1967109375,52.22753403186799L26.40301674107143,37.94867044091224L26.609322544642858,40.422107012569896L26.815628348214286,37.72468687742948L27.021934151785715,68.53262633383274L27.228239955357143,41.474635726213464L27.43454575892857,43.62916357219218L27.640851562499996,61.55817467272282L27.84715736607143,62.44498085826636L28.25976897321429,52.272516342997555L28.466074776785714,72.27569116801023L28.672380580357142,37.0019328340888L28.87868638392857,58.83693044781684L29.0849921875,44.09616297483444L29.497603794642856,44.17158342897892L29.703909598214285,46.80498897731304L30.32282700892857,50.544544313848014L30.529132812500002,73.52328383475542L30.735438616071427,48.50282656997443L30.94174441964286,58.91582665443421L31.148050223214288,55.71433804780246L31.354356026785712,37.45043988376857L31.560661830357144,67.10510442256928L31.76696763392857,61.75145013183356L31.9732734375,49.91062442958355L32.17957924107143,74.68342589437962L32.59219084821429,60.04588489532471L32.79849665178571,73.20699035972358L33.21110825892857,83.52973898798227L33.4174140625,71.20217295885085L33.62371986607143,39.138423886895175L33.83002566964286,68.733342602849L34.242637276785715,57.84208910167217L34.44894308035714,73.5815786153078L34.65524888392857,63.904661916196346L34.8615546875,56.98268399387598L35.27416629464286,56.06770059168338L35.480472098214285,50.049755764007564L35.68677790178571,70.37529819458723L35.89308370535714,69.37276294976472L36.3056953125,70.56293821036816L36.718306919642856,66.92672745585442L36.92461272321429,49.45587452352048L37.13091852678572,40.108749367296696L37.33722433035714,54.65639323443174L37.54353013392857,48.53532316833735L37.7498359375,62.94037682116032L37.95614174107143,51.65906290411949L38.16244754464286,51.00992394834758L38.36875334821429,64.27766414880752L38.57505915178571,48.67912820875644L38.78136495535714,48.47213533818722L38.98767075892857,84.2139054298401L39.1939765625,70.29132333993913L39.40028236607143,51.98321900367738L39.81289397321429,60.779572373628625L40.225505580357144,67.65680420100689L40.431811383928576,79.89219529926777L40.6381171875,52.88419816046952L41.25703459821428,62.69646673500539L41.463340401785715,55.13793680518865L41.66964620535715,81.7897199332714L42.082257812499996,85.2126949608326L42.28856361607143,64.3224777340889L42.701175223214285,64.47696312069893L42.90748102678572,64.67678514271974L43.11378683035715,66.46153341978788L43.32009263392857,71.99429019838571L43.5263984375,80.44831569492817L43.73270424107143,63.24539940953254L43.939010044642856,63.43435548692941L44.35162165178571,73.59450301527977L44.55792745535714,52.73134941458703L44.76423325892857,64.55717538893224L44.9705390625,60.07063697725534L45.176844866071434,60.85452039539814L45.38315066964286,72.1858109086752L45.589456473214284,57.507539489865295L45.795762276785716,73.19794665426015L46.00206808035714,63.67565032243728L46.20837388392857,74.58765710294246L46.62098549107142,80.74490199089051L46.827291294642855,65.080208645761L47.03359709821429,73.90678081512452L47.23990290178571,76.71407522261143L47.446208705357144,78.45770501047373L47.652514508928576,85.71991860568524L47.858820312499994,66.70751883387565L48.065126116071426,72.2071209833026L48.47773772321429,69.50204069465399L48.89034933035715,56.80084814727307L49.09665513392857,63.646578858792786L49.302960937499996,85.18846592903138L49.50926674107143,90.87300848066808L49.71557254464286,73.843441131711L49.921878348214285,84.10959911048413L50.33448995535714,66.74926160871983L50.54079575892857,63.71027286648751L50.7471015625,83.0001591682434L50.95340736607143,64.77098478376865L51.15971316964286,73.03104304522276L51.36601897321428,80.24565907865762L51.778630580357145,72.66263015568256L52.1912421875,85.31711938828231L52.397547991071434,69.7694542914629L52.60385379464285,78.21614021360874L53.016465401785716,80.04254690259695L53.22277120535714,71.69680965542794L53.42907700892857,80.31924042105675L53.6353828125,81.3731358140707L53.84168861607143,73.63052598387003L54.047994419642855,87.03876419812441L54.25430022321429,81.50160367488861L54.46060602678572,54.70385581552983L54.666911830357144,71.59597908854484L54.87321763392857,69.69400009214878L55.0795234375,64.80044431686402L55.49213504464286,83.86315813660622L55.69844084821429,68.89623053669929L55.90474665178571,70.94289194792509L56.11105245535714,66.78705619871617L56.31735825892857,57.687806186079975L56.72996986607143,92.62730174213648L56.93627566964286,68.03753407746554L57.142581473214285,81.88093312680722L57.34888727678571,79.64754281938076L57.55519308035714,88.38470716178416L57.9678046875,78.77882404476405L58.17411049107143,67.51078885197639L58.380416294642856,64.30641503334046L58.58672209821428,77.33616742491722L58.79302790178571,101.27831466645002L58.999333705357145,65.84254577308893L59.20563950892858,77.43053579181434L59.82455691964286,76.59454983174801L60.030862723214284,77.55858183801173L60.237168526785716,62.36655708402395L60.44347433035715,68.69710029065608L60.649780133928566,88.23518231511116L61.06239174107143,89.56263292580843L61.47500334821429,80.58300953954459L61.68130915178572,77.68553116619587L61.887614955357144,78.19660176038742L62.09392075892857,67.16004155874252L62.50653236607143,70.3593198567629L62.71283816964286,78.04726251214743L62.91914397321428,60.68295995295047L63.125449776785715,82.15089448392392L63.33175558035714,80.56345421373844L63.53806138392857,79.27607599198818L63.7443671875,77.7076342523098L63.95067299107143,79.40008949041366L64.15697879464285,89.78052548617124L64.36328459821429,107.93293804600835L64.77589620535714,62.319094502925864L64.98220200892857,89.46971560120583L65.1885078125,92.93465274721383L65.39481361607143,95.6006561294198L65.8074252232143,71.56707635074854L66.0137310267857,82.46766039133071L66.22003683035715,92.98204783797264L66.42634263392857,79.62719448208809L66.6326484375,80.46682492047547L66.83895424107143,64.401677647233L67.04526004464286,66.23437781035899L67.25156584821428,69.49058420956135L67.45787165178571,98.06390165984631L68.0767890625,83.97627194523811L68.28309486607142,83.44630405604839L68.48940066964286,89.24902219176293L68.69570647321429,69.99838152229786L68.90201227678571,88.84411390125751L69.10831808035715,78.1365691035986L69.31462388392856,74.39223882555962L69.5209296875,84.08854212462903L69.72723549107143,90.1807938158512L69.93354129464285,57.71741757243871L70.13984709821429,88.07600634992123L70.55245870535714,69.60616141557693L70.75876450892856,81.8307203143835L71.17137611607143,72.04009926617145L71.37768191964285,93.20830920040608L71.58398772321429,89.7673648700118L71.79029352678572,74.25859108120203L71.99659933035714,69.12942653149366L72.20290513392857,97.05883552730084L72.82182254464286,86.34089721739292L73.02812834821428,76.49989463090897L73.23443415178572,89.12534614503384L73.44073995535715,70.52593663185836L73.8533515625,66.46075728088617L74.05965736607142,77.34370947033166L74.26596316964286,60.9056274548173L74.47226897321428,67.94002740979194L74.88488058035715,74.39347052425147L75.09118638392856,108.6571178227663L75.50379799107142,84.9004509061575L75.91640959821429,85.30736703425646L76.12271540178573,73.60003722310067L76.53532700892856,60.01764018833637L76.7416328125,79.07991532087327L77.15424441964286,103.14481061697006L77.36055022321429,105.04554104208945L77.56685602678573,102.84336501657963L77.77316183035714,81.97903033494948L78.1857734375,92.28524383008481L78.39207924107143,72.73278636336327L78.59838504464287,75.437292984128L78.80469084821429,80.62527536451817L79.0109966517857,75.8187483817339L79.21730245535714,102.66520739346743L79.42360825892857,93.56445572078228L79.6299140625,112.4924250781536L79.83621986607143,97.60031051933765L80.04252566964286,90.36394572407006L80.2488314732143,83.39929703474046L80.4551372767857,97.22789882719518L80.66144308035715,100.0554065912962L80.86774888392857,81.64262473881244L81.69297209821428,75.22918652296066L81.89927790178571,94.31609562933444L82.10558370535713,88.14231560826302L82.31188950892857,94.21280166506767L82.5181953125,83.14774366766214L82.72450111607144,91.93203313946724L82.93080691964286,102.4143120571971L83.34341852678571,97.7505440145731L83.54972433035714,68.72696476578712L83.75603013392858,94.54726691395045L83.9623359375,94.07252299487591L84.16864174107144,74.34222848415375L84.37494754464285,81.46949514597655L84.58125334821428,84.20087979435921L84.99386495535714,89.67778831720352L85.20017075892858,77.8756514519453L85.4064765625,75.74734360277652L85.61278236607144,71.1162915021181L85.81908816964285,84.91685105860233L86.02539397321428,87.50095491409301L86.43800558035714,78.69275698959827L86.64431138392858,74.98173319399358L86.8506171875,79.82089175581932L87.05692299107142,84.69598892331123L87.26322879464286,93.96177134811877L87.67584040178572,87.09613098651171L87.88214620535715,89.41322618722916L88.29475781250001,78.33326969742775L88.70736941964286,88.47845124304295L88.91367522321428,89.02885183244943L89.11998102678572,90.65042534172535L89.32628683035715,82.7743533656001L89.53259263392857,65.57243256270885L89.7388984375,98.26714881658553L90.15151004464286,78.20807511806488L90.35781584821429,93.45147689282895L90.56412165178571,78.84293986707927L90.97673325892858,95.56346895247698L91.1830390625,95.13755429387093L91.38934486607143,85.40659470558167L91.59565066964285,96.64280820339918L91.80195647321429,92.83662302941083L92.00826227678571,103.00492001622915L92.21456808035715,96.77773826420308L92.42087388392856,89.7504754126072L92.62717968749999,116.24685359820724L92.83348549107143,88.4963193103671L93.03979129464285,90.14532764256L93.45240290178572,90.85023049116135L93.65870870535713,89.25950006693601L93.86501450892857,95.21268791407347L94.07132031249999,87.71857751309871L94.48393191964286,82.73681186437607L94.6902377232143,97.4395822763443L95.10284933035713,75.40277167558669L95.30915513392857,101.54972706586123L95.5154609375,103.86069751828909L95.72176674107143,88.66452210843563L95.92807254464286,83.02840387523175L96.1343783482143,92.16686577498912L96.34068415178571,76.59643956124783L96.54698995535713,95.20153513550758L96.75329575892857,102.87442744523287L96.9596015625,104.02731429338455L97.78482477678571,99.47330241501332L97.99113058035714,89.65664696842431L98.19743638392858,85.82162654697895L98.61004799107143,81.2444148644805L98.81635379464286,74.2075177669525L99.43527120535714,112.31129788011312L99.64157700892856,103.0171526402235L100.05418861607143,96.98709329664707L100.26049441964287,96.58240434974432L100.46680022321428,94.66863141655922L101.08571763392857,99.54642819762229L101.2920234375,95.2436659798026L101.49832924107143,80.6832664385438L101.70463504464286,91.38995073437691L101.91094084821428,91.09818999767303L102.1172466517857,83.2332033097744L102.32355245535715,80.31821119338274L102.52985825892857,83.21302369832993L102.73616406250001,90.50201408565044L102.94246986607143,73.26484645307063L103.14877566964284,96.96617129147053L103.35508147321428,91.74343138635159L103.56138727678571,107.64186064898968L103.76769308035715,100.18110734820367L103.97399888392857,100.09158141314983L104.18030468750001,87.98251535743475L104.38661049107142,99.60409869253635L104.59291629464285,100.54916591346263L104.79922209821429,86.64772517234087L105.00552790178571,97.93826839327812L105.21183370535715,91.50009496808052L105.41813950892858,95.54124775826931L105.83075111607143,103.93093808889388L106.03705691964285,94.62381783127785L106.24336272321429,92.47668017745018L106.44966852678571,91.83945326656102L107.06858593749999,93.30579899549484L107.27489174107143,96.35656480193138L107.48119754464285,100.64265690594912L107.68750334821429,87.89260135293007L107.89380915178572,104.81560145616531L108.10011495535714,88.98597859442235L108.30642075892858,92.14371658861637L108.51272656249999,91.13868420124054L108.71903236607143,100.2981018513441L108.92533816964286,94.65184319466353L109.33794977678572,100.27674115896225L109.54425558035715,108.55977988094092L109.75056138392857,74.2765435114503L110.36947879464286,98.52688538730145L110.57578459821428,105.6057952210307L110.78209040178572,97.06565205156802L110.98839620535715,94.53690714687109L111.19470200892856,95.15930305570363L111.4010078125,65.2502505555749L111.60731361607142,96.45027513802052L111.81361941964286,111.7967515334487L112.22623102678573,101.93017010837794L112.43253683035714,102.2092257887125L112.63884263392856,90.2413832679391L112.8451484375,87.99398871511221L113.67037165178573,93.6238134741783L113.87667745535714,113.06320775002241L114.08298325892856,100.23601073920726L114.2892890625,88.28353914320469L114.49559486607143,85.2553151100874L114.70190066964287,95.62544195652008L114.90820647321429,100.9764641240239L115.32081808035714,97.08218718469142L115.7334296875,84.33773332983255L115.93973549107143,116.27456681877375L116.14604129464286,96.90900697410108L116.3523470982143,92.1799757733941L116.5586529017857,96.45572498291732L116.76495870535715,87.04547948688268L116.97126450892857,121.05024228021502L117.38387611607143,78.06396637111902L117.59018191964286,119.2755669362843L117.79648772321428,64.62410893291235L118.00279352678571,108.97023081555962L118.41540513392857,98.16436102986336L118.6217109375,100.57673571705818L118.82801674107144,107.31826978102326L119.44693415178571,93.39259157180787L119.65323995535714,108.41233036220073L119.85954575892858,107.1103067368269L120.0658515625,123.8277650117874L120.27215736607144,101.15845182389022L120.47846316964285,101.42298020869494L120.68476897321428,107.72323712557555L121.09738058035714,103.44357347637414L121.30368638392858,108.71367472708225L121.5099921875,101.03334160745145L121.71629799107144,95.90706226974726L121.92260379464285,103.70118410140276L122.12890959821428,90.33126352727413L122.74782700892858,104.11689084619285L122.9541328125,93.65492652058602L123.36674441964286,85.87740731239319L123.57305022321428,96.7052198946476L123.77935602678572,99.12236952334642L124.19196763392857,100.60255077183247L124.39827343750001,113.79811005443334L124.60457924107142,81.44234715700149L125.22349665178572,107.88469088971614L125.42980245535715,104.74306621402502L125.63610825892857,116.0207693979144L125.8424140625,98.61415039598943L126.04871986607142,100.96252736896277L126.25502566964286,90.79033281505109L126.46133147321429,104.37603687644004L126.66763727678571,88.10382924228907L126.87394308035715,103.98356368094683L127.2865546875,99.61111768782139L127.49286049107143,92.35708729624749L127.69916629464285,125.55032094120979L127.90547209821429,105.98905598521232L128.11177790178573,104.3275788128376L128.31808370535714,92.14989195466042L128.7306953125,96.48560633063316L129.34961272321428,100.52389078140259L129.55591852678572,110.60446719974279L129.76222433035713,111.99590708836912L130.1748359375,89.00254747271538L130.38114174107142,83.95857260376215L130.58744754464286,95.96972704976797L130.7937533482143,103.09456405937671L131.00005915178573,82.77010147422551L131.20636495535715,99.96286046355964L131.41267075892856,102.2358169823885L131.6189765625,103.7439223587513L131.82528236607143,94.23792494386434L132.03158816964287,117.39476303383708L132.23789397321428,94.72847847491504L132.4441997767857,91.13605207800866L132.65050558035713,108.71554758399725L132.85681138392857,108.75076066851615L133.0631171875,103.70442363768815L133.47572879464286,98.94146166890859L133.6820345982143,109.51772088408471L133.8883404017857,113.7141014546156L134.30095200892856,97.39998231977223L134.71356361607144,78.14296381324529L134.91986941964285,125.73851775228978L135.1261752232143,104.52060118317604L135.3324810267857,83.20794505029916L135.53878683035714,117.62509068921209L135.9513984375,89.57142354249955L136.15770424107143,110.50313045531512L136.36401004464287,87.88510992527007L136.57031584821428,105.1723385170102L136.77662165178572,106.2076825030148L136.98292745535713,81.95147740393877L137.18923325892857,110.9132101930678L137.60184486607145,100.46053422540426L137.80815066964286,94.38608311116695L138.01445647321427,103.15636833757162L138.2207622767857,103.09836039096116L138.42706808035715,103.66107796728612L138.63337388392858,108.90853620916606L138.8396796875,113.00201088488102L139.04598549107143,86.74334211051463L139.45859709821428,135.36407430320978L139.66490290178572,104.55621920973063L139.87120870535713,95.13822919726373L140.49012611607142,117.92538051754237L141.31534933035715,115.22402063384652L141.5216551339286,130.01944684535266L141.7279609375,109.61732818856835L142.14057254464285,95.37928781658411L142.3468783482143,86.39983315616847L142.55318415178573,110.0543112628162L142.75948995535714,110.94773993790149L142.96579575892858,98.31739537417889L143.1721015625,85.71639223545789L143.37840736607143,82.99658218026161L143.58471316964287,105.95257745683193L143.79101897321428,100.84207398593425L143.99732477678572,106.55218693986535L144.20363058035716,87.34893292486667L144.40993638392857,108.93597103208303L144.82254799107142,137.76390422359108L145.02885379464288,122.99959949478507L145.2351595982143,113.13149110078812L145.4414654017857,126.75097407698631L145.64777120535715,103.33879472464322L145.85407700892856,123.96002920418978L146.06038281250002,108.06320283710956L146.26668861607143,116.35838982015848L146.47299441964287,109.53892972320318L146.67930022321428,84.40321583151818L147.09191183035716,120.91209799200296L147.29821763392857,113.3652101457119L147.5045234375,119.94394063875079L147.71082924107142,119.93249258995057L147.91713504464283,103.63060607910155L148.1234408482143,121.4890560299158L148.3297466517857,121.36077376753092L148.53605245535715,96.0235337227583L148.74235825892856,85.16912994682788L148.9486640625,115.42508279085159L149.15496986607144,131.35246540904046L149.36127566964285,104.43264439851045L149.7738872767857,100.11802075356245L149.98019308035714,82.48071977198124L150.18649888392858,125.22822329699993L150.39280468750002,128.52155781909823L150.59911049107143,108.47342599183321L151.21802790178572,115.6295025922358L151.42433370535716,118.58857433646916L151.63063950892857,103.82447207868098L151.83694531249998,111.77539084106684L152.04325111607142,96.41296985298395L152.24955691964286,90.48043404966593L152.6621685267857,116.49033343344927L152.86847433035715,108.75141026303173L153.07478013392858,126.50670123025775L153.2810859375,113.06528307795524L153.48739174107143,145.59061545282603L153.69369754464284,111.53632318675518L153.90000334821428,112.09831524193287L154.10630915178572,112.15394415408373L154.51892075892857,106.49081291258335L154.72522656249998,124.41574084758759L155.13783816964286,103.43250506073237L155.3441439732143,126.93217720165849L155.5504497767857,113.39465280622244L155.75675558035715,107.76373976543546L155.96306138392856,108.26698991656303L156.58197879464285,123.79482972621918L156.7882845982143,115.27338138073684L156.9945904017857,115.19009830206632L157.20089620535714,116.75134388431907L157.6135078125,130.05806819200515L158.02611941964284,126.0668076351285L158.43873102678572,74.27816327959299L158.85134263392857,110.07581537216902L159.05764843749998,129.0312870427966L159.26395424107145,98.2450288578868L159.47026004464286,109.72135611027478L159.6765658482143,113.85062597468495L160.08917745535712,94.23699695169925L160.29548325892858,127.81776856109501L160.5017890625,104.78492709696293L160.70809486607143,96.88946852087975L160.91440066964284,104.54159067869186L161.1207064732143,113.63226098194718L161.53331808035713,115.17626278251409L161.73962388392857,118.97731869071721L161.94592968749998,92.13355929255486L162.15223549107145,106.05981960594654L162.56484709821427,114.82439346238971L162.7711529017857,120.3642873443663L162.97745870535712,117.54372264891863L163.1837645089286,121.31975651383401L163.59637611607144,121.73566572964192L163.80268191964285,128.69229994118214L164.00898772321426,132.16204577386378L164.21529352678573,98.44734802246093L164.42159933035714,149.2121301859617L164.62790513392858,108.31373541280628L164.8342109375,104.11252084672451L165.04051674107146,104.00784333050251L165.24682254464287,138.61955518126487L165.65943415178572,87.65749875605106L165.86573995535713,112.64996440261602L166.2783515625,101.1688453361392L166.48465736607145,111.6636943295598L166.69096316964286,102.59469686150551L166.89726897321427,105.95198691636324L167.10357477678573,100.2901717364788L167.30988058035715,124.05584861338139L167.51618638392858,119.77044828534126L167.7224921875,125.22770868316293L167.9287979910714,94.92976841181517L168.34140959821428,114.18811985254287L168.54771540178572,103.19323493540287L168.75402120535713,108.51580148860812L168.96032700892857,98.73738775551318L169.1666328125,114.79178719222546L169.37293861607142,123.85936736315489L169.57924441964286,124.24957963228225L169.78555022321427,89.12784328758717L169.9918560267857,71.44194926172496L170.19816183035715,97.23304496556521L170.4044676339286,120.38863448426127L170.6107734375,110.96127175092697L170.8170792410714,115.77783792167902L171.02338504464285,137.23341328427196L171.2296908482143,132.8186761572957L171.43599665178573,119.41622523963451L171.64230245535714,133.9356750175357L171.84860825892858,115.09292908608914L172.0549140625,105.57513773441315L172.26121986607143,105.7590489089489L172.46752566964287,119.15284419059753L172.67383147321428,133.4428268149495L173.08644308035713,126.8079021781683L173.29274888392857,125.37079663872719L173.4990546875,121.59782514795661L173.91166629464286,103.07608857899903L174.11797209821427,145.952026219666L174.32427790178573,97.04093371480703L174.53058370535715,118.13477773144841L174.73688950892856,106.53078406602144L175.76841852678572,105.76822759509086L175.97472433035713,105.55485688745976L176.18103013392857,107.66955699697137L176.59364174107142,111.25503188893198L176.79994754464286,106.46990777999163L177.00625334821427,110.55874249488114L177.21255915178574,118.64605923295021L177.41886495535715,108.26433248445392L177.8314765625,124.46209827437997L178.0377823660714,122.46632457897067L178.24408816964288,113.62622903287411L178.4503939732143,124.36115803569555L178.6566997767857,126.59421089142562L178.86300558035714,90.2586101770401L179.06931138392855,99.67870926260947L179.27561718750002,134.60684956908227L179.48192299107143,114.61157955005764L179.68822879464287,123.9281653277576L179.89453459821428,91.92120094001292L180.1008404017857,95.62031269073486L180.30714620535716,108.1465196609497L180.7197578125,108.99980845674872L180.92606361607142,96.87809639871121L181.13236941964288,120.6053543999791L181.3386752232143,104.17219917923212L181.5449810267857,106.7011465549469L181.75128683035715,126.16386717930436L181.95759263392856,143.5732617214322L182.16389843750002,121.3043265350163L182.37020424107143,148.44609796255827L182.9891216517857,110.6191210396588L183.19542745535716,111.97667234167456L183.40173325892857,104.24152863025665L183.6080390625,105.85804036408662L183.81434486607142,115.98893083035945L184.02065066964283,143.18725072592497L184.4332622767857,126.50413659736513L184.63956808035715,133.06137141734362L184.84587388392856,127.26066955551505L185.0521796875,135.54769020751118L185.25848549107144,121.96858332678676L185.46479129464285,131.31956386864186L185.6710970982143,140.04616597294807L185.8774029017857,140.0218103967607L186.29001450892858,114.10439808666706L186.49632031250002,116.83666010946035L186.70262611607143,139.950439362973L186.90893191964284,124.6821420893073L187.11523772321428,108.21703019291162L187.32154352678572,135.75531580001115L187.52784933035716,104.1861528068781L187.73415513392857,150.32326582297682L187.94046093749998,124.02983108758927L188.14676674107142,142.27969126105307L188.5593783482143,103.45184104293584L188.7656841517857,106.46145461499691L188.97198995535715,117.53548882752658L189.3846015625,142.72317871674895L189.59090736607143,131.06790926605464L189.79721316964284,130.60735519081354L190.00351897321428,130.28066820353268L190.20982477678572,122.2009019471705L190.41613058035716,117.60562816262245L190.62243638392857,99.08860748112203L190.82874218749998,103.56618655025959L191.03504799107142,113.89311957955361L191.24135379464286,126.65264065265656L191.4476595982143,130.45896080732345L191.6539654017857,125.33441934585572L191.86027120535715,115.28638170734048L192.06657700892856,128.31845407932997L192.47918861607144,139.55301406383515L192.68549441964285,139.90224282443523L192.8918002232143,137.74350526854397L193.0981060267857,101.71887472867967L193.30441183035714,119.7015069037676L193.51071763392858,105.7288807272911L193.92332924107143,110.74431561902166L194.12963504464284,97.57022670060395L194.54224665178572,136.11136952117084L194.74855245535713,123.76904841661452L195.16116406249998,105.06615934073925L195.57377566964286,145.35369905307888L196.19269308035712,125.99843148514628L196.39899888392858,109.93502208814026L197.01791629464284,116.78734154403209L197.2242220982143,135.8279775865376L197.43052790178572,132.62880896031857L197.63683370535713,131.02879861444234L197.84313950892857,125.58906039595604L198.25575111607145,143.83703083992003L198.46205691964286,102.65989252924919L198.66836272321427,123.68230645805598L199.2872801339286,120.40829104557633L199.4935859375,97.3611585021019L199.90619754464285,103.16198690831662L200.11250334821426,125.32724849730731L200.31880915178573,147.4857779249549L200.52511495535714,117.02720220983029L200.73142075892858,97.73863196969033L200.9377265625,126.05220441296696L201.14403236607146,130.89106770455837L201.55664397321428,129.74886120259762L201.76294977678572,138.88448850810528L201.96925558035713,123.49578003287316L202.3818671875,101.74673136621713L202.58817299107145,134.6477993324399L202.79447879464286,146.63426918685437L203.00078459821427,143.2833400964737L203.20709040178573,131.88666831701994L203.41339620535715,121.08487326055764L203.61970200892858,111.26941576749086L203.8260078125,125.55089460909367L204.0323136160714,138.18848594799638L204.23861941964287,114.10429685115814L204.44492522321428,139.54115263670684L204.85753683035713,147.73416768237948L205.06384263392857,117.74867393672467L205.47645424107142,121.61593786776065L205.88906584821427,112.32799330279231L206.0953716517857,111.30262945070864L206.7142890625,140.80953232795L206.9205948660714,153.66979960501195L207.3332064732143,127.56720224022865L207.53951227678573,119.44914365261793L207.74581808035714,113.78709225654602L207.95212388392858,130.48809132501484L208.1584296875,133.18775551393628L208.57104129464287,144.84921720325946L208.77734709821428,102.8580104202032L209.18995870535713,118.02280282229185L209.39626450892857,123.20526786744595L209.80887611607142,118.84803250953554L210.01518191964286,150.86172905862333L210.22148772321427,149.36049082428218L210.42779352678573,112.49433168023825L210.63409933035715,117.49283493310213L210.84040513392856,158.00273844078183L211.0467109375,111.41835850998758L211.2530167410714,128.82189826518297L211.45932254464287,128.07037646472455L211.87193415178572,119.76901411563158L212.07823995535713,106.4474672421813L212.28454575892857,128.79948303624988L212.4908515625,113.64423208087682L212.69715736607142,122.07424788922071L212.90346316964286,133.87441909834743L213.10976897321427,137.85379291921853L213.31607477678574,127.02746512442828L213.52238058035715,113.90992467403412L213.72868638392856,123.03521752133965L214.1412979910714,99.55969004929067L214.5539095982143,118.78178230524064L214.7602154017857,128.67677716314793L214.96652120535714,140.70965506210922L215.17282700892855,109.33429901450872L215.37913281250002,120.24881981015206L215.58543861607143,141.133114759624L215.79174441964287,144.23462486490607L215.99805022321428,147.59287665709854L216.2043560267857,143.81836132481695L216.41066183035716,147.05102203190327L216.61696763392857,122.18496579080819L216.8232734375,126.968596675992L217.23588504464288,140.97766763567924L217.6484966517857,124.5237591356039L217.85480245535715,130.7007449477911L218.06110825892856,122.21995953172446L218.26741406250002,117.88610114008189L218.68002566964287,143.98695219233633L218.88633147321428,108.76430091783403L219.0926372767857,108.85127909258007L219.29894308035716,135.1813273370266L219.50524888392857,145.73334064781665L219.7115546875,127.97207678556443L219.91786049107142,133.831950802356L220.3304720982143,134.1404407069087L220.5367779017857,145.20356679335237L221.1556953125,97.64768873751164L221.36200111607144,145.25660576373338L221.9809185267857,117.85570517852902L222.18722433035714,142.7542411454022L222.39353013392858,144.89059721753L222.59983593750002,141.2470721974969L222.80614174107143,127.70321214646101L223.01244754464284,140.74957559779287L223.21875334821428,99.8433350726962L223.42505915178572,138.9762163154781L223.63136495535716,132.66777619495988L224.25028236607142,122.52745395377279L224.45658816964286,120.56595691442489L224.6628939732143,145.58550305962564L224.8691997767857,131.27874908596277L225.07550558035715,144.98218160793186L225.4881171875,137.42471465095878L225.69442299107143,106.01647393554448L225.90072879464284,94.65344609022141L226.10703459821428,132.4523892134428L226.31334040178572,127.3029859982431L226.72595200892857,140.49315448999405L226.93225781249998,132.70089707896113L227.13856361607142,139.25060672611L227.34486941964286,139.14566768482328L227.5511752232143,104.12082215845585L227.7574810267857,111.3799986883998L227.96378683035715,135.8484524682164L228.17009263392856,128.01929471418262L228.3763984375,132.15851940363646L228.58270424107144,137.91660955250262L228.9953158482143,131.6538350827992L229.40792745535714,119.11690558493137L229.8205390625,103.20629431605339L230.02684486607143,145.32434075549244L230.23315066964284,108.1721659898758L230.4394564732143,143.8635714158416L230.64576227678572,105.39649080634116L231.26467968749998,130.4463063687086L231.67729129464286,141.1356709562242L231.8835970982143,138.48706320896744L232.29620870535712,129.77721558138728L232.50251450892858,104.65129622519017L232.7088203125,135.2020299986005L232.91512611607143,142.0643127158284L233.12143191964284,148.10739769488572L233.53404352678572,121.93765587881207L234.35926674107145,128.7538848757744L234.56557254464286,101.72373403310776L234.77187834821427,140.08900546580554L234.9781841517857,145.64865714460612L235.18448995535712,136.07344838678836L236.00971316964285,114.37622386440636L236.21601897321426,145.27429666891695L236.42232477678573,134.03424465805293L236.62863058035714,121.69230318665505L237.0412421875,148.58764207661153L237.24754799107146,129.93299172073603L237.45385379464287,146.48272806629538L237.86646540178572,117.1646209768951L238.07277120535713,142.3178907930851L238.2790770089286,133.66771306172012L238.69168861607145,119.38645356372L239.10430022321427,137.1892830386758L239.31060602678573,151.6922314286232L239.51691183035715,148.59272072464228L239.9295234375,148.5701452061534L240.1358292410714,119.9678153462708L240.34213504464287,124.6378093726933L240.54844084821428,125.24461501315237L240.75474665178572,135.63484554439782L240.96105245535713,107.35819875299931L241.16735825892857,139.95630258619786L241.3736640625,121.46061728820204L241.57996986607142,97.5233715325594L241.78627566964286,150.6414490275085L241.99258147321427,117.25839880332352L242.1988872767857,105.98053532987832L242.40519308035715,112.22928024530411L242.8178046875,161.4601335413754L243.0241104910714,119.43421141505242L243.23041629464285,125.9101372487843L243.64302790178573,130.25897005945444L243.84933370535714,152.6953740864992L244.05563950892858,101.10110190808773L244.2619453125,119.37522485852242L244.67455691964287,128.26522107422352L244.88086272321428,120.13965418636799L245.08716852678572,134.02656763195992L245.29347433035713,148.97327343896032L245.91239174107142,144.55585357099773L246.11869754464286,146.79997484236955L246.32500334821427,124.3068958029151L246.53130915178573,119.68316640406847L247.3565323660714,123.15994810461997L247.76914397321428,111.47237609028817L247.97544977678572,143.71386940702797L248.18175558035713,126.20641140192747L248.38806138392857,131.79017400443553L248.5943671875,143.0711842149496L248.80067299107142,143.0425345659256L249.00697879464286,136.73465124070646L249.21328459821427,140.0280195079744L249.41959040178574,115.34289643019439L249.62589620535715,108.27053315937519L249.83220200892856,142.51985563337803L250.0385078125,129.9256352737546L250.2448136160714,140.35294331014157L250.45111941964288,136.34119099900127L250.6574252232143,127.29665877893568L251.07003683035714,115.92250346392393L251.27634263392855,115.74966070502997L251.48264843750002,131.78961720913648L251.68895424107143,130.76437146514655L251.89526004464287,141.7061921030283L252.10156584821428,152.04314744770528L252.3078716517857,136.7981259047985L252.9267890625,113.02524443417788L253.13309486607142,124.85068233907224L253.5457064732143,110.2103995449841L253.7520122767857,141.45937993228435L253.95831808035715,125.02469774261117L254.16462388392856,137.071335234493L254.37092968750002,132.23224416300656L254.57723549107143,120.18461962491274L254.78354129464287,112.34013312757016L254.98984709821428,139.44220336303115L255.1961529017857,112.3855203807354L255.40245870535716,132.81565596461297L255.8150703125,109.88833564594388L256.02137611607145,132.4610870309174L256.4339877232143,142.2685216099024L256.6402935267857,107.54077699333429L257.05290513392856,135.09731873720884L257.25921093750003,132.90120840594173L257.46551674107144,135.7753773033619L257.67182254464285,141.6147933110595L257.8781283482143,105.24865321815014L258.08443415178573,133.45597055852414L258.29073995535714,145.67766955420376L258.49704575892855,152.27796321064233L258.7033515625,126.67268528342247L259.11596316964284,122.62456411570311L259.3222689732143,118.23026812523604L259.5285747767857,145.11791311651467L259.9411863839286,142.31689531058072L260.1474921875,131.52327502146363L260.3537979910714,140.8571720711887L260.5601037946428,130.76723980456592L260.7664095982143,148.5576341845095L260.9727154017857,133.61690127253533L261.1790212053572,141.39468200579284L261.3853270089286,123.69267466142774L261.5916328125,132.55531198084356L261.7979386160714,141.2022417396307L262.62316183035716,114.24530104249716L262.8294676339286,136.6977930791676L263.0357734375,138.7682195261121L263.44838504464286,110.27374766469002L263.6546908482143,152.05352408736945L263.8609966517857,121.18599066138268L264.06730245535715,136.76789023280145L264.27360825892856,142.19401227533817L264.4799140625,135.96095886379481L264.68621986607144,176.17367709875106L265.0988314732143,116.99001503288746L265.30513727678573,124.25489449650048L265.51144308035714,96.63604229688644L265.92405468749996,161.35873774290084L266.13036049107143,106.57578324973584L266.33666629464284,127.27212604060769L266.5429720982143,128.12860375493764L266.9555837053571,128.98134419173002L267.1618895089286,130.699116743356L267.3681953125,120.78870877921581L267.5745011160714,147.15433286875486L267.7808069196428,136.10857710838317L267.9871127232143,138.18983575478197L268.6060301339286,114.83959566131234L268.8123359375,126.86411319449543L269.4312533482143,130.14168872237207L269.6375591517857,124.53916380554438L269.8438649553571,153.96984478086233L270.2564765625,137.9100123718381L270.46278236607145,135.42503495216368L270.66908816964286,130.34658939242362L271.08169977678574,138.01880679875612L271.28800558035715,145.57630750089885L271.49431138392856,140.56896301358938L271.90692299107144,141.6647614710033L272.11322879464285,138.7678145840764L272.31953459821426,153.50401802286507L272.52584040178573,132.29717830568552L272.73214620535714,134.16673663035036L272.9384520089286,142.04499360620974L273.1447578125,138.43856296390294L273.55736941964284,113.43896021395922L274.1762868303571,141.1823827072978L274.3825926339286,143.54807095229626L275.0015100446429,138.31669228374957L275.2078158482143,112.04883638694882L275.4141216517857,127.15984742492437L275.6204274553571,138.9233123257756L275.8267332589286,125.78989477306605L276.2393448660714,137.82962294146418L276.4456506696429,145.05060837566853L276.6519564732143,131.26383372098206L276.8582622767857,119.81831580847502L277.06456808035716,146.84907406419515L277.2708738839286,143.74465343803166L277.4771796875,144.1659618809819L277.6834854910714,144.85583125650882L277.88979129464286,124.76466590166092L278.0960970982143,141.0240841165185L278.30240290178574,131.2142451941967L278.50870870535715,140.91636109873653" style="fill: none;" fill="none"></path></g></g></g></g></g></g><g transform="translate(41, 176)" clip-path="url(#clip_1)"><clipPath id="clip_1"><rect width="288" height="23"></rect></clipPath><g><g><line x1="0" y1="0" x2="0" y2="5" style="visibility: inherit;" fill="rgb(0, 0, 0)" stroke="rgb(204, 204, 204)" stroke-width="1.1764705181121826px"></line><line x1="20.630580357142858" y1="0" x2="20.630580357142858" y2="5" style="visibility: inherit;" fill="rgb(0, 0, 0)" stroke="rgb(204, 204, 204)" stroke-width="1.1764705181121826px"></line><line x1="41.261160714285715" y1="0" x2="41.261160714285715" y2="5" style="visibility: inherit;" fill="rgb(0, 0, 0)" stroke="rgb(204, 204, 204)" stroke-width="1.1764705181121826px"></line><line x1="61.89174107142857" y1="0" x2="61.89174107142857" y2="5" style="visibility: inherit;" fill="rgb(0, 0, 0)" stroke="rgb(204, 204, 204)" stroke-width="1.1764705181121826px"></line><line x1="82.52232142857143" y1="0" x2="82.52232142857143" y2="5" style="visibility: inherit;" fill="rgb(0, 0, 0)" stroke="rgb(204, 204, 204)" stroke-width="1.1764705181121826px"></line><line x1="103.15290178571429" y1="0" x2="103.15290178571429" y2="5" style="visibility: inherit;" fill="rgb(0, 0, 0)" stroke="rgb(204, 204, 204)" stroke-width="1.1764705181121826px"></line><line x1="123.78348214285714" y1="0" x2="123.78348214285714" y2="5" style="visibility: inherit;" fill="rgb(0, 0, 0)" stroke="rgb(204, 204, 204)" stroke-width="1.1764705181121826px"></line><line x1="144.4140625" y1="0" x2="144.4140625" y2="5" style="visibility: inherit;" fill="rgb(0, 0, 0)" stroke="rgb(204, 204, 204)" stroke-width="1.1764705181121826px"></line><line x1="165.04464285714286" y1="0" x2="165.04464285714286" y2="5" style="visibility: inherit;" fill="rgb(0, 0, 0)" stroke="rgb(204, 204, 204)" stroke-width="1.1764705181121826px"></line><line x1="185.67522321428572" y1="0" x2="185.67522321428572" y2="5" style="visibility: inherit;" fill="rgb(0, 0, 0)" stroke="rgb(204, 204, 204)" stroke-width="1.1764705181121826px"></line><line x1="206.30580357142858" y1="0" x2="206.30580357142858" y2="5" style="visibility: inherit;" fill="rgb(0, 0, 0)" stroke="rgb(204, 204, 204)" stroke-width="1.1764705181121826px"></line><line x1="226.93638392857142" y1="0" x2="226.93638392857142" y2="5" style="visibility: inherit;" fill="rgb(0, 0, 0)" stroke="rgb(204, 204, 204)" stroke-width="1.1764705181121826px"></line><line x1="247.56696428571428" y1="0" x2="247.56696428571428" y2="5" style="visibility: inherit;" fill="rgb(0, 0, 0)" stroke="rgb(204, 204, 204)" stroke-width="1.1764705181121826px"></line><line x1="268.19754464285717" y1="0" x2="268.19754464285717" y2="5" style="visibility: inherit;" fill="rgb(0, 0, 0)" stroke="rgb(204, 204, 204)" stroke-width="1.1764705181121826px"></line><line x1="288.828125" y1="0" x2="288.828125" y2="5" style="visibility: inherit;" fill="rgb(0, 0, 0)" stroke="rgb(204, 204, 204)" stroke-width="1.1764705181121826px"></line></g><g transform="translate(0, 8)"><text x="0" y="0" dx="0em" dy="0.95em" style="text-anchor: middle; visibility: hidden; font-family: Roboto, sans-serif; font-size: 14.117646217346191px; font-weight: 200;" fill="rgb(255, 255, 255)" stroke="none" stroke-width="1.1764705181121826px">-5k</text><text x="20.630580357142858" y="0" dx="0em" dy="0.95em" style="text-anchor: middle; visibility: inherit; font-family: Roboto, sans-serif; font-size: 14.117646217346191px; font-weight: 200;" fill="rgb(255, 255, 255)" stroke="none" stroke-width="1.1764705181121826px">0</text><text x="41.261160714285715" y="0" dx="0em" dy="0.95em" style="text-anchor: middle; visibility: hidden; font-family: Roboto, sans-serif; font-size: 14.117646217346191px; font-weight: 200;" fill="rgb(255, 255, 255)" stroke="none" stroke-width="1.1764705181121826px">5k</text><text x="61.89174107142857" y="0" dx="0em" dy="0.95em" style="text-anchor: middle; visibility: inherit; font-family: Roboto, sans-serif; font-size: 14.117646217346191px; font-weight: 200;" fill="rgb(255, 255, 255)" stroke="none" stroke-width="1.1764705181121826px">10k</text><text x="82.52232142857143" y="0" dx="0em" dy="0.95em" style="text-anchor: middle; visibility: hidden; font-family: Roboto, sans-serif; font-size: 14.117646217346191px; font-weight: 200;" fill="rgb(255, 255, 255)" stroke="none" stroke-width="1.1764705181121826px">15k</text><text x="103.15290178571429" y="0" dx="0em" dy="0.95em" style="text-anchor: middle; visibility: inherit; font-family: Roboto, sans-serif; font-size: 14.117646217346191px; font-weight: 200;" fill="rgb(255, 255, 255)" stroke="none" stroke-width="1.1764705181121826px">20k</text><text x="123.78348214285714" y="0" dx="0em" dy="0.95em" style="text-anchor: middle; visibility: hidden; font-family: Roboto, sans-serif; font-size: 14.117646217346191px; font-weight: 200;" fill="rgb(255, 255, 255)" stroke="none" stroke-width="1.1764705181121826px">25k</text><text x="144.4140625" y="0" dx="0em" dy="0.95em" style="text-anchor: middle; visibility: inherit; font-family: Roboto, sans-serif; font-size: 14.117646217346191px; font-weight: 200;" fill="rgb(255, 255, 255)" stroke="none" stroke-width="1.1764705181121826px">30k</text><text x="165.04464285714286" y="0" dx="0em" dy="0.95em" style="text-anchor: middle; visibility: hidden; font-family: Roboto, sans-serif; font-size: 14.117646217346191px; font-weight: 200;" fill="rgb(255, 255, 255)" stroke="none" stroke-width="1.1764705181121826px">35k</text><text x="185.67522321428572" y="0" dx="0em" dy="0.95em" style="text-anchor: middle; visibility: inherit; font-family: Roboto, sans-serif; font-size: 14.117646217346191px; font-weight: 200;" fill="rgb(255, 255, 255)" stroke="none" stroke-width="1.1764705181121826px">40k</text><text x="206.30580357142858" y="0" dx="0em" dy="0.95em" style="text-anchor: middle; visibility: hidden; font-family: Roboto, sans-serif; font-size: 14.117646217346191px; font-weight: 200;" fill="rgb(255, 255, 255)" stroke="none" stroke-width="1.1764705181121826px">45k</text><text x="226.93638392857142" y="0" dx="0em" dy="0.95em" style="text-anchor: middle; visibility: inherit; font-family: Roboto, sans-serif; font-size: 14.117646217346191px; font-weight: 200;" fill="rgb(255, 255, 255)" stroke="none" stroke-width="1.1764705181121826px">50k</text><text x="247.56696428571428" y="0" dx="0em" dy="0.95em" style="text-anchor: middle; visibility: hidden; font-family: Roboto, sans-serif; font-size: 14.117646217346191px; font-weight: 200;" fill="rgb(255, 255, 255)" stroke="none" stroke-width="1.1764705181121826px">55k</text><text x="268.19754464285717" y="0" dx="0em" dy="0.95em" style="text-anchor: middle; visibility: inherit; font-family: Roboto, sans-serif; font-size: 14.117646217346191px; font-weight: 200;" fill="rgb(255, 255, 255)" stroke="none" stroke-width="1.1764705181121826px">60k</text><text x="288.828125" y="0" dx="0em" dy="0.95em" style="text-anchor: middle; visibility: hidden; font-family: Roboto, sans-serif; font-size: 14.117646217346191px; font-weight: 200;" fill="rgb(255, 255, 255)" stroke="none" stroke-width="1.1764705181121826px">65k</text></g><line x1="0" y1="0" x2="288.828125" y2="0" fill="rgb(0, 0, 0)" stroke="rgb(204, 204, 204)" stroke-width="1.1764705181121826px"></line></g></g></g></g></svg>